# xmcd
#
# Track frame offsets:
#	150
#	14117
#	29146
#	43461
#	59480
#	75588
#	94823
#	111864
#	125752
#	142429
#	162863
#	176326
#	190820
#	204673
#	218026
#	233658
#	252607
#	268618
#	282470
#
# Disc length: 3935 seconds
#
# Revision: 1
# Processed by: cddbd v1.5.2PL0 Copyright (c) Steve Scherf et al.
# Submitted via: audiograbber 1.82.02
#
DISCID=310f5d13
DTITLE=Various Artist - Country Radio - April 2013
DYEAR=2013
DGENRE=Country
TTITLE0=Tate Stevens - Power Of A Love Song
TTITLE1=Gary Allan - Pieces
TTITLE2=Randy Houser - Runnin' Outta Moonlight
TTITLE3=Jenna Jentry - Lovin' Lazy
TTITLE4=Tyler Dean and Ashley Gearing - I Wanna Wake Up With You
TTITLE5=Tim McGraw (Ft. Colt Ford) - Twisted (PO Clean Edit)
TTITLE6=Jaida Dreyer - Half Broke Horses
TTITLE7=Katie Armiger - Playin' With Fire
TTITLE8=Kenny Chesney - Pirate Flag (PO Clean Edit)
TTITLE9=Brad Paisley - Southern Comfort Zone (Acoustic Ver)
TTITLE10=Zac Brown Band - Jump Right In
TTITLE11=Big and Rich - Cheat On You
TTITLE12=Rose Falcon - If Love Had A Heart
TTITLE13=Phil Vassar - Love Is Alive
TTITLE14=Jon Pardi - Up All Night
TTITLE15=Rachel Farley - Ain't Easy
TTITLE16=Dana Walker - Memphis City Blues
TTITLE17=Erica Nicole - Better Beer
TTITLE18=St. Ice and Kelly Weaver - Lost Art, The
EXTD=
EXTT0=
EXTT1=
EXTT2=
EXTT3=
EXTT4=
EXTT5=
EXTT6=
EXTT7=
EXTT8=
EXTT9=
EXTT10=
EXTT11=
EXTT12=
EXTT13=
EXTT14=
EXTT15=
EXTT16=
EXTT17=
EXTT18=
PLAYORDER=
